<?xml version="1.0" encoding="UTF-8"?>
<!DOCTYPE svg PUBLIC "-//W3C//DTD SVG 1.1//EN" "http://www.w3.org/Graphics/SVG/1.1/DTD/svg11.dtd">
<svg xmlns="http://www.w3.org/2000/svg" version="1.1" width="66px" height="60px" style="shape-rendering:geometricPrecision; text-rendering:geometricPrecision; image-rendering:optimizeQuality; fill-rule:evenodd; clip-rule:evenodd" xmlns:xlink="http://www.w3.org/1999/xlink">
<g><path style="opacity:1" fill="#fdfef8" d="M -0.5,-0.5 C 4.5,-0.5 9.5,-0.5 14.5,-0.5C 11.2178,4.28454 7.38447,8.61787 3,12.5C 2.1925,16.0267 2.35916,19.3601 3.5,22.5C 3.5,22.8333 3.5,23.1667 3.5,23.5C 1.93819,23.7329 0.60486,24.3995 -0.5,25.5C -0.5,16.8333 -0.5,8.16667 -0.5,-0.5 Z"/></g>
<g><path style="opacity:1" fill="#fefdf5" d="M 49.5,-0.5 C 54.8333,-0.5 60.1667,-0.5 65.5,-0.5C 65.5,4.83333 65.5,10.1667 65.5,15.5C 59.8333,10.5 54.5,5.16667 49.5,-0.5 Z"/></g>
<g><path style="opacity:1" fill="#fefdf2" d="M 49.5,3.5 C 54.0672,7.06002 58.4006,11.06 62.5,15.5C 63.3857,16.325 63.719,17.325 63.5,18.5C 61.7116,19.6225 59.7116,19.7891 57.5,19C 54.3311,14.665 50.6644,10.8316 46.5,7.5C 46.1667,6.83333 45.8333,6.16667 45.5,5.5C 41.3467,4.83426 37.0134,4.50093 32.5,4.5C 27.7784,4.50786 23.4451,5.17453 19.5,6.5C 16.8248,9.20943 14.1581,11.8761 11.5,14.5C 10.0695,14.4208 8.73619,14.7542 7.5,15.5C 6.47899,14.9984 6.31232,14.3317 7,13.5C 10.5,10 14,6.5 17.5,3C 28.2432,2.19165 38.9099,2.35832 49.5,3.5 Z"/></g>
<g><path style="opacity:1" fill="#f0ce77" d="M 14.5,-0.5 C 26.1667,-0.5 37.8333,-0.5 49.5,-0.5C 54.5,5.16667 59.8333,10.5 65.5,15.5C 65.5,15.8333 65.5,16.1667 65.5,16.5C 64.8333,17.1667 64.1667,17.8333 63.5,18.5C 63.719,17.325 63.3857,16.325 62.5,15.5C 58.4006,11.06 54.0672,7.06002 49.5,3.5C 44.3762,2.17144 38.8762,1.50478 33,1.5C 27.5,1.66667 22,1.83333 16.5,2C 12.6667,5.83333 8.83333,9.66667 5,13.5C 4.51722,14.448 4.35055,15.448 4.5,16.5C 3.53862,18.2646 3.20528,20.2646 3.5,22.5C 2.35916,19.3601 2.1925,16.0267 3,12.5C 7.38447,8.61787 11.2178,4.28454 14.5,-0.5 Z"/></g>
<g><path style="opacity:1" fill="#eec14c" d="M 20.5,6.5 C 28.6499,5.50728 36.9832,5.17395 45.5,5.5C 45.8333,6.16667 46.1667,6.83333 46.5,7.5C 37.8873,6.5579 29.2206,6.22457 20.5,6.5 Z"/></g>
<g><path style="opacity:1" fill="#fffed7" d="M 45.5,5.5 C 36.9832,5.17395 28.6499,5.50728 20.5,6.5C 20.1667,6.5 19.8333,6.5 19.5,6.5C 23.4451,5.17453 27.7784,4.50786 32.5,4.5C 37.0134,4.50093 41.3467,4.83426 45.5,5.5 Z"/></g>
<g><path style="opacity:1" fill="#fffcd8" d="M 49.5,3.5 C 38.9099,2.35832 28.2432,2.19165 17.5,3C 14,6.5 10.5,10 7,13.5C 6.31232,14.3317 6.47899,14.9984 7.5,15.5C 8.73619,14.7542 10.0695,14.4208 11.5,14.5C 10.8333,15.5 10.1667,16.5 9.5,17.5C 7.70848,17.634 6.04181,17.3007 4.5,16.5C 4.35055,15.448 4.51722,14.448 5,13.5C 8.83333,9.66667 12.6667,5.83333 16.5,2C 22,1.83333 27.5,1.66667 33,1.5C 38.8762,1.50478 44.3762,2.17144 49.5,3.5 Z"/></g>
<g><path style="opacity:1" fill="#7ca291" d="M 51.5,22.5 C 51.1667,22.5 50.8333,22.5 50.5,22.5C 48.1938,19.5271 45.5272,16.8605 42.5,14.5C 42.3893,13.8826 42.056,13.3826 41.5,13C 35.8333,12.3333 30.1667,12.3333 24.5,13C 21.8823,15.1057 19.8823,17.6057 18.5,20.5C 18.5,21.1667 18.1667,21.5 17.5,21.5C 17.2525,19.1417 17.9192,17.1417 19.5,15.5C 20.1287,12.8711 21.7954,11.2044 24.5,10.5C 30.1667,9.16667 35.8333,9.16667 41.5,10.5C 45.6334,13.9549 48.9667,17.9549 51.5,22.5 Z"/></g>
<g><path style="opacity:1" fill="#f4c23a" d="M 19.5,6.5 C 19.8333,6.5 20.1667,6.5 20.5,6.5C 29.2206,6.22457 37.8873,6.5579 46.5,7.5C 47.3733,9.88632 48.8733,11.8863 51,13.5C 51.4828,14.448 51.6495,15.448 51.5,16.5C 50.105,17.6477 50.2716,18.6477 52,19.5C 52.4988,23.4862 52.6655,27.4862 52.5,31.5C 52.1667,31.5 51.8333,31.5 51.5,31.5C 51.5,28.5 51.5,25.5 51.5,22.5C 48.9667,17.9549 45.6334,13.9549 41.5,10.5C 35.8333,9.16667 30.1667,9.16667 24.5,10.5C 21.7954,11.2044 20.1287,12.8711 19.5,15.5C 18.391,15.5569 17.391,15.8902 16.5,16.5C 16.2172,15.7109 15.7172,15.0442 15,14.5C 13.2591,15.7577 11.4258,16.7577 9.5,17.5C 10.1667,16.5 10.8333,15.5 11.5,14.5C 14.1581,11.8761 16.8248,9.20943 19.5,6.5 Z"/></g>
<g><path style="opacity:1" fill="#edfdfe" d="M 42.5,14.5 C 40.712,14.2148 39.0453,14.5481 37.5,15.5C 39.297,16.6951 40.297,18.3618 40.5,20.5C 37.3573,16.76 33.3573,15.5934 28.5,17C 27.1175,18.2708 26.1175,19.7708 25.5,21.5C 23.0504,21.702 20.717,21.3686 18.5,20.5C 19.8823,17.6057 21.8823,15.1057 24.5,13C 30.1667,12.3333 35.8333,12.3333 41.5,13C 42.056,13.3826 42.3893,13.8826 42.5,14.5 Z"/></g>
<g><path style="opacity:1" fill="#f8c12f" d="M 16.5,16.5 C 16.5,20.1667 16.5,23.8333 16.5,27.5C 16.0269,28.9063 15.0269,29.573 13.5,29.5C 11.9458,28.0858 10.6125,26.4192 9.5,24.5C 7.60395,23.5344 5.60395,23.2011 3.5,23.5C 3.5,23.1667 3.5,22.8333 3.5,22.5C 3.20528,20.2646 3.53862,18.2646 4.5,16.5C 6.04181,17.3007 7.70848,17.634 9.5,17.5C 11.4258,16.7577 13.2591,15.7577 15,14.5C 15.7172,15.0442 16.2172,15.7109 16.5,16.5 Z"/></g>
<g><path style="opacity:1" fill="#f2fdfe" d="M 42.5,14.5 C 45.5272,16.8605 48.1938,19.5271 50.5,22.5C 48.5,25.8333 46.5,29.1667 44.5,32.5C 43.3734,33.1217 42.3734,33.955 41.5,35C 35.5,35.3333 29.5,35.6667 23.5,36C 21.4611,37.9263 19.7945,40.093 18.5,42.5C 17.3734,43.1217 16.3734,43.955 15.5,45C 14.365,45.7494 13.365,45.5827 12.5,44.5C 9.3887,39.9176 6.05536,35.5843 2.5,31.5C 0.425015,26.5674 2.09168,24.5674 7.5,25.5C 8.83333,27.1667 10.1667,28.8333 11.5,30.5C 14.0388,35.6689 16.7054,35.6689 19.5,30.5C 25.5092,30.6662 31.5092,30.4995 37.5,30C 38.9752,27.6908 40.6419,25.5241 42.5,23.5C 41.8075,22.4822 41.1408,21.4822 40.5,20.5C 40.297,18.3618 39.297,16.6951 37.5,15.5C 39.0453,14.5481 40.712,14.2148 42.5,14.5 Z"/></g>
<g><path style="opacity:1" fill="#bbbc6b" d="M 19.5,15.5 C 17.9192,17.1417 17.2525,19.1417 17.5,21.5C 17.5,23.5 17.5,25.5 17.5,27.5C 17.1667,27.5 16.8333,27.5 16.5,27.5C 16.5,23.8333 16.5,20.1667 16.5,16.5C 17.391,15.8902 18.391,15.5569 19.5,15.5 Z"/></g>
<g><path style="opacity:1" fill="#f8cb5b" d="M 46.5,7.5 C 50.6644,10.8316 54.3311,14.665 57.5,19C 59.7116,19.7891 61.7116,19.6225 63.5,18.5C 64.1667,17.8333 64.8333,17.1667 65.5,16.5C 65.5,21.1667 65.5,25.8333 65.5,30.5C 64.8333,30.5 64.5,30.8333 64.5,31.5C 64.1667,31.5 63.8333,31.5 63.5,31.5C 63.1667,30.8333 62.8333,30.1667 62.5,29.5C 63.4767,26.7131 63.81,23.7131 63.5,20.5C 61.1432,20.6633 58.8098,20.4966 56.5,20C 55.2107,18.1978 53.5441,17.0312 51.5,16.5C 51.6495,15.448 51.4828,14.448 51,13.5C 48.8733,11.8863 47.3733,9.88632 46.5,7.5 Z"/></g>
<g><path style="opacity:1" fill="#fcbf27" d="M 51.5,16.5 C 53.5441,17.0312 55.2107,18.1978 56.5,20C 58.8098,20.4966 61.1432,20.6633 63.5,20.5C 63.81,23.7131 63.4767,26.7131 62.5,29.5C 59.8127,29.3359 57.146,29.5026 54.5,30C 53.944,30.3826 53.6107,30.8826 53.5,31.5C 53.1667,31.5 52.8333,31.5 52.5,31.5C 52.6655,27.4862 52.4988,23.4862 52,19.5C 50.2716,18.6477 50.105,17.6477 51.5,16.5 Z"/></g>
<g><path style="opacity:1" fill="#639895" d="M 3.5,23.5 C 5.60395,23.2011 7.60395,23.5344 9.5,24.5C 10.6125,26.4192 11.9458,28.0858 13.5,29.5C 13.5,29.8333 13.5,30.1667 13.5,30.5C 12.8333,30.5 12.1667,30.5 11.5,30.5C 10.1667,28.8333 8.83333,27.1667 7.5,25.5C 6.16667,24.8333 4.83333,24.1667 3.5,23.5 Z"/></g>
<g><path style="opacity:1" fill="#2a9ff5" d="M 40.5,20.5 C 41.1408,21.4822 41.8075,22.4822 42.5,23.5C 40.6419,25.5241 38.9752,27.6908 37.5,30C 31.5092,30.4995 25.5092,30.6662 19.5,30.5C 18.5269,28.0521 18.1936,25.3854 18.5,22.5C 21.0593,22.8016 23.3926,22.4682 25.5,21.5C 26.1175,19.7708 27.1175,18.2708 28.5,17C 33.3573,15.5934 37.3573,16.76 40.5,20.5 Z"/></g>
<g><path style="opacity:1" fill="#449dc9" d="M 50.5,22.5 C 50.8333,22.5 51.1667,22.5 51.5,22.5C 51.5,25.5 51.5,28.5 51.5,31.5C 51.5,32.8333 51.5,34.1667 51.5,35.5C 51.1667,35.5 50.8333,35.5 50.5,35.5C 50.6646,32.4816 50.498,29.4816 50,26.5C 48.669,28.9962 46.8356,30.9962 44.5,32.5C 46.5,29.1667 48.5,25.8333 50.5,22.5 Z"/></g>
<g><path style="opacity:1" fill="#4da6e2" d="M 3.5,23.5 C 4.83333,24.1667 6.16667,24.8333 7.5,25.5C 2.09168,24.5674 0.425015,26.5674 2.5,31.5C 1.52693,33.9479 1.1936,36.6146 1.5,39.5C 0.833333,36.8333 0.166667,34.1667 -0.5,31.5C -0.5,29.5 -0.5,27.5 -0.5,25.5C 0.60486,24.3995 1.93819,23.7329 3.5,23.5 Z"/></g>
<g><path style="opacity:1" fill="#dc6147" d="M 62.5,29.5 C 62.8333,30.1667 63.1667,30.8333 63.5,31.5C 62.8333,31.5 62.1667,31.5 61.5,31.5C 59.9317,30.5269 58.265,30.3603 56.5,31C 55.6719,32.9923 54.3386,34.4923 52.5,35.5C 52.8333,34.1667 53.1667,32.8333 53.5,31.5C 53.6107,30.8826 53.944,30.3826 54.5,30C 57.146,29.5026 59.8127,29.3359 62.5,29.5 Z"/></g>
<g><path style="opacity:1" fill="#def7e9" d="M 16.5,27.5 C 16.8333,27.5 17.1667,27.5 17.5,27.5C 17.7163,29.6807 16.883,31.3474 15,32.5C 14.2828,31.9558 13.7828,31.2891 13.5,30.5C 13.5,30.1667 13.5,29.8333 13.5,29.5C 15.0269,29.573 16.0269,28.9063 16.5,27.5 Z"/></g>
<g><path style="opacity:1" fill="#49a1d1" d="M 18.5,20.5 C 20.717,21.3686 23.0504,21.702 25.5,21.5C 23.3926,22.4682 21.0593,22.8016 18.5,22.5C 18.1936,25.3854 18.5269,28.0521 19.5,30.5C 16.7054,35.6689 14.0388,35.6689 11.5,30.5C 12.1667,30.5 12.8333,30.5 13.5,30.5C 13.7828,31.2891 14.2828,31.9558 15,32.5C 16.883,31.3474 17.7163,29.6807 17.5,27.5C 17.5,25.5 17.5,23.5 17.5,21.5C 18.1667,21.5 18.5,21.1667 18.5,20.5 Z"/></g>
<g><path style="opacity:1" fill="#fff8f9" d="M 65.5,30.5 C 65.5,40.1667 65.5,49.8333 65.5,59.5C 60.5,59.5 55.5,59.5 50.5,59.5C 51.5,58.1667 52.5,56.8333 53.5,55.5C 56.5256,51.795 59.1923,47.795 61.5,43.5C 63.7276,39.924 64.7276,35.924 64.5,31.5C 64.5,30.8333 64.8333,30.5 65.5,30.5 Z"/></g>
<g><path style="opacity:1" fill="#e45f70" d="M 61.5,31.5 C 62.1667,31.5 62.8333,31.5 63.5,31.5C 63.8333,31.5 64.1667,31.5 64.5,31.5C 64.7276,35.924 63.7276,39.924 61.5,43.5C 61.6567,42.1266 61.49,40.7932 61,39.5C 59.9609,40.7101 58.7942,41.7101 57.5,42.5C 58.7502,40.0676 60.2502,37.7343 62,35.5C 62.5791,34.0715 62.4124,32.7382 61.5,31.5 Z"/></g>
<g><path style="opacity:1" fill="#089bf8" d="M 50.5,35.5 C 49.2921,36.2341 47.9587,36.5674 46.5,36.5C 46.5,37.8333 46.5,39.1667 46.5,40.5C 42.774,40.1774 39.1073,40.5108 35.5,41.5C 33.1737,42.1447 31.507,43.478 30.5,45.5C 28.1241,43.4183 25.4574,41.9183 22.5,41C 24.6775,39.7978 27.0108,39.2978 29.5,39.5C 29.5,38.5 29.5,37.5 29.5,36.5C 33.8461,36.6657 38.1794,36.499 42.5,36C 43.8228,35.1841 44.4894,34.0174 44.5,32.5C 46.8356,30.9962 48.669,28.9962 50,26.5C 50.498,29.4816 50.6646,32.4816 50.5,35.5 Z"/></g>
<g><path style="opacity:1" fill="#fef6f9" d="M 61.5,31.5 C 62.4124,32.7382 62.5791,34.0715 62,35.5C 60.2502,37.7343 58.7502,40.0676 57.5,42.5C 55.364,44.8123 53.364,47.3123 51.5,50C 45.418,50.7876 39.418,50.621 33.5,49.5C 33.2322,47.901 33.5655,46.5676 34.5,45.5C 39.294,46.0969 43.6273,45.4302 47.5,43.5C 49.1933,40.8159 50.86,38.1492 52.5,35.5C 54.3386,34.4923 55.6719,32.9923 56.5,31C 58.265,30.3603 59.9317,30.5269 61.5,31.5 Z"/></g>
<g><path style="opacity:1" fill="#4588da" d="M 50.5,35.5 C 50.8333,35.5 51.1667,35.5 51.5,35.5C 47.5924,42.3574 41.5924,45.1907 33.5,44C 32.3636,45.1451 31.3636,46.3117 30.5,47.5C 30.5,46.8333 30.5,46.1667 30.5,45.5C 31.507,43.478 33.1737,42.1447 35.5,41.5C 39.1073,40.5108 42.774,40.1774 46.5,40.5C 46.5,39.1667 46.5,37.8333 46.5,36.5C 47.9587,36.5674 49.2921,36.2341 50.5,35.5 Z"/></g>
<g><path style="opacity:1" fill="#f4fdfe" d="M -0.5,31.5 C 0.166667,34.1667 0.833333,36.8333 1.5,39.5C 3.67347,43.8523 6.34014,47.8523 9.5,51.5C 10.4972,56.8673 13.4972,58.8673 18.5,57.5C 18.1667,58.1667 17.8333,58.8333 17.5,59.5C 11.5,59.5 5.5,59.5 -0.5,59.5C -0.5,50.1667 -0.5,40.8333 -0.5,31.5 Z"/></g>
<g><path style="opacity:1" fill="#1e9cf1" d="M 44.5,32.5 C 44.4894,34.0174 43.8228,35.1841 42.5,36C 38.1794,36.499 33.8461,36.6657 29.5,36.5C 29.5,37.5 29.5,38.5 29.5,39.5C 27.0108,39.2978 24.6775,39.7978 22.5,41C 25.4574,41.9183 28.1241,43.4183 30.5,45.5C 30.5,46.1667 30.5,46.8333 30.5,47.5C 30.5,47.8333 30.5,48.1667 30.5,48.5C 24.2557,48.4009 20.2557,51.4009 18.5,57.5C 13.4972,58.8673 10.4972,56.8673 9.5,51.5C 9.73772,48.5918 8.73772,46.2585 6.5,44.5C 9.0928,41.7921 10.4261,42.4588 10.5,46.5C 12.924,46.8076 15.2573,46.4742 17.5,45.5C 18.1272,44.5832 18.4606,43.5832 18.5,42.5C 19.7945,40.093 21.4611,37.9263 23.5,36C 29.5,35.6667 35.5,35.3333 41.5,35C 42.3734,33.955 43.3734,33.1217 44.5,32.5 Z"/></g>
<g><path style="opacity:1" fill="#279ceb" d="M 2.5,31.5 C 6.05536,35.5843 9.3887,39.9176 12.5,44.5C 13.365,45.5827 14.365,45.7494 15.5,45C 16.3734,43.955 17.3734,43.1217 18.5,42.5C 18.4606,43.5832 18.1272,44.5832 17.5,45.5C 15.2573,46.4742 12.924,46.8076 10.5,46.5C 10.4261,42.4588 9.0928,41.7921 6.5,44.5C 8.73772,46.2585 9.73772,48.5918 9.5,51.5C 6.34014,47.8523 3.67347,43.8523 1.5,39.5C 1.1936,36.6146 1.52693,33.9479 2.5,31.5 Z"/></g>
<g><path style="opacity:1" fill="#b77194" d="M 51.5,31.5 C 51.8333,31.5 52.1667,31.5 52.5,31.5C 52.8333,31.5 53.1667,31.5 53.5,31.5C 53.1667,32.8333 52.8333,34.1667 52.5,35.5C 50.86,38.1492 49.1933,40.8159 47.5,43.5C 43.063,44.1132 38.7297,44.7798 34.5,45.5C 33.5655,46.5676 33.2322,47.901 33.5,49.5C 31.6921,50.9179 31.0254,52.9179 31.5,55.5C 30.5318,53.3926 30.1984,51.0593 30.5,48.5C 30.5,48.1667 30.5,47.8333 30.5,47.5C 31.3636,46.3117 32.3636,45.1451 33.5,44C 41.5924,45.1907 47.5924,42.3574 51.5,35.5C 51.5,34.1667 51.5,32.8333 51.5,31.5 Z"/></g>
<g><path style="opacity:1" fill="#fdc6d9" d="M 47.5,43.5 C 43.6273,45.4302 39.294,46.0969 34.5,45.5C 38.7297,44.7798 43.063,44.1132 47.5,43.5 Z"/></g>
<g><path style="opacity:1" fill="#ea4d64" d="M 61.5,43.5 C 59.1923,47.795 56.5256,51.795 53.5,55.5C 53.5,54.1667 53.5,52.8333 53.5,51.5C 46.5778,51.8122 39.7445,51.4788 33,50.5C 32.2119,53.7719 32.7119,56.7719 34.5,59.5C 34.1667,59.5 33.8333,59.5 33.5,59.5C 32.3995,58.3951 31.7329,57.0618 31.5,55.5C 31.0254,52.9179 31.6921,50.9179 33.5,49.5C 39.418,50.621 45.418,50.7876 51.5,50C 53.364,47.3123 55.364,44.8123 57.5,42.5C 58.7942,41.7101 59.9609,40.7101 61,39.5C 61.49,40.7932 61.6567,42.1266 61.5,43.5 Z"/></g>
<g><path style="opacity:1" fill="#f8fcfd" d="M 30.5,48.5 C 30.1984,51.0593 30.5318,53.3926 31.5,55.5C 31.7329,57.0618 32.3995,58.3951 33.5,59.5C 28.1667,59.5 22.8333,59.5 17.5,59.5C 17.8333,58.8333 18.1667,58.1667 18.5,57.5C 20.2557,51.4009 24.2557,48.4009 30.5,48.5 Z"/></g>
<g><path style="opacity:1" fill="#fa3a5b" d="M 53.5,55.5 C 52.5,56.8333 51.5,58.1667 50.5,59.5C 45.1667,59.5 39.8333,59.5 34.5,59.5C 32.7119,56.7719 32.2119,53.7719 33,50.5C 39.7445,51.4788 46.5778,51.8122 53.5,51.5C 53.5,52.8333 53.5,54.1667 53.5,55.5 Z"/></g>
</svg>
